#!OML:ASF F:\VICON\USERDATA\INSTALL\rory3\rory3.ASF
:FULLY-SPECIFIED
:DEGREES
1007
root 1.30595 15.3309 -5.36783 -6.29627 -2.03727 2.67959
lowerback -7.90786 11.8682 8.11835
upperback -2.89905 15.4106 -5.94625
thorax 5.02638 7.84397 -8.38089
lowerneck 4.41767 -8.79215 -14.344
upperneck 49.5761 -4.27154 -14.6255
head 18.8426 -5.87073 -5.21822
rclavicle 4.25399e-014 1.27222e-014
rhumerus 67.7196 -5.23174 -74.1492
rradius 146.902
rwrist -64.8983
rhand 0.237008 -40.0443
rfingers 7.12502
rthumb 25.8174 -68.3122
lclavicle 4.25399e-014 1.27222e-014
lhumerus -58.5569 -12.9236 81.3561
lradius 35.24
lwrist 20.6862
lhand -12.6009 -24.7701
lfingers 7.12502
lthumb 13.4779 4.77382
rfemur -15.9543 -33.8495 18.2466
rtibia 67.9093
rfoot -48.7468 -36.0335
rtoes 11.1179
lfemur -35.1856 -20.7926 -4.59161
ltibia 22.612
lfoot 10.1472 -6.10281
ltoes -15.1582
1008
root 1.305 15.3296 -5.36723 -6.30372 -2.09579 2.72561
lowerback -7.88878 11.9065 8.14472
upperback -2.86631 15.4641 -5.96911
thorax 5.07631 7.87495 -8.40498
lowerneck 4.3524 -8.79071 -14.2791
upperneck 49.5883 -4.29046 -14.5582
head 18.8583 -5.85968 -5.20175
rclavicle -2.04748e-013 1.00187e-013
rhumerus 67.7536 -5.13177 -74.0152
rradius 146.813
rwrist -64.69
rhand 0.225982 -39.9058
rfingers 7.12502
rthumb 25.8068 -68.1752
lclavicle -2.04748e-013 1.00187e-013
lhumerus -58.5179 -13.0592 81.3923
lradius 35.2693
lwrist 20.8019
lhand -12.4388 -24.6824
lfingers 7.12502
lthumb 13.6341 4.85108
rfemur -16.0052 -33.8391 18.216
rtibia 67.9322
rfoot -48.438 -36.436
rtoes 10.5551
lfemur -35.1811 -20.7249 -4.64468
ltibia 22.6509
lfoot 10.1287 -6.04522
ltoes -15.0102
1009
root 1.30234 15.3288 -5.37102 -6.34566 -2.12953 2.63711
lowerback -7.77055 11.8858 8.26055
upperback -2.85751 15.4347 -5.93428
thorax 5.03447 7.86158 -8.45749
lowerneck 4.31546 -8.7648 -14.327
upperneck 49.6146 -4.2663 -14.4844
head 18.8948 -5.85128 -5.16334
rclavicle -1.39944e-013 0
rhumerus 67.7825 -5.08088 -74.0638
rradius 146.776
rwrist -64.7216
rhand 0.284315 -39.708
rfingers 7.12502
rthumb 25.8627 -67.9693
lclavicle -1.39944e-013 0
lhumerus -58.6055 -13.0911 81.4463
lradius 35.4316
lwrist 20.9716
lhand -12.4106 -24.4101
lfingers 7.12502
lthumb 13.6613 5.1216
rfemur -16.0265 -33.7994 18.3676
rtibia 67.9188
rfoot -47.9348 -37.0582
rtoes 9.83348
lfemur -35.154 -20.6958 -4.54184
ltibia 22.6716
lfoot 10.1194 -6.04827
ltoes -14.9478
1010
root 1.2979 15.3282 -5.37238 -6.47653 -2.12277 2.50885
lowerback -7.61937 11.8608 8.35589
upperback -2.77317 15.4028 -5.85523
thorax 5.03706 7.84993 -8.45205
lowerneck 4.03552 -8.80447 -14.3724
upperneck 49.7987 -4.22936 -14.4973
head 19.106 -5.85219 -5.21676
rclavicle 2.05146e-013 2.22639e-014
rhumerus 67.8829 -5.15357 -74.0712
rradius 146.765
rwrist -64.8286
rhand 0.25459 -39.9142
rfingers 7.12502
rthumb 25.8342 -68.1797
lclavicle 2.05146e-013 2.22639e-014
lhumerus -58.7571 -13.2637 81.6567
lradius 35.8715
lwrist 21.2404
lhand -12.7062 -23.7122
lfingers 7.12502
lthumb 13.3764 5.83841
rfemur -15.8263 -33.7316 18.4693
rtibia 67.8745
rfoot -47.9247 -37.0707
rtoes 9.80137
lfemur -35.0192 -20.7008 -4.44477
ltibia 22.6822
lfoot 10.1119 -6.14435
ltoes -14.963
1011
root 1.2962 15.3257 -5.37271 -6.55467 -2.1253 2.41855
lowerback -7.52146 11.7634 8.39354
upperback -2.61313 15.2727 -5.72883
thorax 5.09996 7.79172 -8.37189
lowerneck 3.53235 -8.79985 -14.4839
upperneck 49.8718 -4.04891 -14.5953
head 19.3157 -5.814 -5.28488
rclavicle -7.91163e-014 1.11319e-014
rhumerus 68.287 -5.12615 -74.083
rradius 146.694
rwrist -64.9472
rhand 0.179607 -40.0274
rfingers 7.12502
rthumb 25.7624 -68.3033
lclavicle -7.91163e-014 1.11319e-014
lhumerus -58.686 -13.0755 81.7378
lradius 36.0979
lwrist 21.3446
lhand -12.7368 -23.4231
lfingers 7.12502
lthumb 13.3469 6.12947
rfemur -15.6861 -33.7132 18.5178
rtibia 67.8441
rfoot -47.9548 -36.9767
rtoes 9.85128
lfemur -34.9561 -20.6692 -4.38215
ltibia 22.6989
lfoot 10.1473 -6.21335
ltoes -14.8298
1012
root 1.29652 15.3261 -5.37226 -6.54403 -2.11507 2.40655
lowerback -7.53551 11.7103 8.42003
upperback -2.58292 15.1974 -5.69679
thorax 5.12109 7.75573 -8.36354
lowerneck 3.53962 -8.79795 -14.463
upperneck 49.7755 -4.00021 -14.7537
head 19.2436 -5.80559 -5.34363
rclavicle -9.50191e-014 3.18055e-014
rhumerus 68.4882 -5.17261 -74.2093
rradius 146.618
rwrist -65.1012
rhand 0.136097 -39.9946
rfingers 7.12502
rthumb 25.7207 -68.2766
lclavicle -9.50191e-014 3.18055e-014
lhumerus -58.7338 -12.9577 81.7317
lradius 36.1824
lwrist 21.3619
lhand -12.3787 -23.5683
lfingers 7.12502
lthumb 13.6921 5.96126
rfemur -15.6776 -33.7561 18.5172
rtibia 67.813
rfoot -48.0712 -36.8483
rtoes 10.1688
lfemur -35.0048 -20.7005 -4.3505
ltibia 22.7416
lfoot 10.1783 -6.15205
ltoes -14.5841
1013
root 1.29471 15.3276 -5.37045 -6.54291 -2.1041 2.43442
lowerback -7.54039 11.7475 8.45206
upperback -2.6678 15.2462 -5.75029
thorax 5.06675 7.77683 -8.43275
lowerneck 3.89265 -8.81835 -14.13
upperneck 49.7057 -4.03717 -15.0323
head 19.0526 -5.78606 -5.49198
rclavicle -7.7526e-014 1.11319e-014
rhumerus 68.2418 -5.18626 -74.2365
rradius 146.645
rwrist -65.0702
rhand 0.0463446 -40.1586
rfingers 7.12502
rthumb 25.6348 -68.453
lclavicle -7.7526e-014 1.11319e-014
lhumerus -58.9798 -13.175 81.7903
lradius 36.3316
lwrist 21.4551
lhand -12.4305 -23.4442
lfingers 7.12502
lthumb 13.6421 6.08874
rfemur -15.6609 -33.7376 18.5002
rtibia 67.7647
rfoot -48.2248 -36.755
rtoes 10.474
lfemur -35.0437 -20.7489 -4.36343
ltibia 22.8234
lfoot 10.1383 -6.08172
ltoes -14.6134
1014
root 1.29106 15.3273 -5.37199 -6.60608 -2.10955 2.28183
lowerback -7.39297 11.6971 8.60357
upperback -2.67137 15.1748 -5.67847
thorax 4.98429 7.74031 -8.48202
lowerneck 3.90931 -8.766 -13.9514
upperneck 49.6395 -3.89859 -15.2427
head 18.9861 -5.71691 -5.59246
rclavicle -4.33351e-014 -5.08889e-014
rhumerus 67.9967 -4.86267 -74.1439
rradius 146.823
rwrist -64.8562
rhand 0.00508866 -40.228
rfingers 7.12502
rthumb 25.5952 -68.528
lclavicle -4.33351e-014 -5.08889e-014
lhumerus -58.989 -13.0388 81.7241
lradius 36.2501
lwrist 21.4224
lhand -12.4976 -23.5522
lfingers 7.12502
lthumb 13.5775 5.98504
rfemur -15.5807 -33.6834 18.6994
rtibia 67.6808
rfoot -47.838 -37.2588
rtoes 9.8641
lfemur -35.0151 -20.6391 -4.25901
ltibia 22.9179
lfoot 10.0441 -6.21519
ltoes -14.9639
1015
root 1.28744 15.3282 -5.37154 -6.74612 -2.16644 1.94978
lowerback -7.17609 11.6693 8.95548
upperback -2.63953 15.1238 -5.54737
thorax 4.93984 7.71879 -8.57604
lowerneck 3.81517 -8.77868 -14.1919
upperneck 49.718 -3.91666 -15.1115
head 19.0979 -5.75705 -5.51952
rclavicle -1.43125e-014 4.92986e-014
rhumerus 67.8453 -4.66451 -74.0788
rradius 146.945
rwrist -64.7057
rhand 0.00175531 -40.1017
rfingers 7.12502
rthumb 25.5921 -68.4022
lclavicle -1.43125e-014 4.92986e-014
lhumerus -58.9282 -12.9107 81.6479
lradius 36.0846
lwrist 21.3288
lhand -12.3136 -23.9923
lfingers 7.12502
lthumb 13.7548 5.53302
rfemur -15.3592 -33.6101 19.0443
rtibia 67.5668
rfoot -47.5277 -37.7017
rtoes 9.29324
lfemur -34.8529 -20.4955 -3.99406
ltibia 22.9731
lfoot 9.91343 -6.37065
ltoes -15.2542
1016
root 1.28632 15.3297 -5.3655 -6.82506 -2.26907 1.81971
lowerback -7.13023 11.7451 9.14388
upperback -2.63329 15.214 -5.50369
thorax 4.97713 7.76733 -8.61291
lowerneck 4.00896 -8.74898 -13.6503
upperneck 49.5775 -3.78731 -15.5726
head 18.8837 -5.64675 -5.767
rclavicle 1.99977e-013 0
rhumerus 67.7459 -4.70278 -74.0258
rradius 146.914
rwrist -64.7166
rhand -0.0583657 -40.0555
rfingers 7.12502
rthumb 25.5345 -68.3643
lclavicle 1.99977e-013 0
lhumerus -58.9755 -13.0417 81.7134
lradius 36.067
lwrist 21.3173
lhand -12.3041 -23.8919
lfingers 7.12502
lthumb 13.7639 5.63282
rfemur -15.1778 -33.5076 19.1316
rtibia 67.509
rfoot -47.9029 -37.3047
rtoes 9.69331
lfemur -34.7066 -20.4577 -3.87347
ltibia 22.9728
lfoot 9.85333 -6.32815
ltoes -15.265
